# xmcd CD database file
#
# Track frame offsets:
#	150
#	14493
#	26697
#	38047
#	50846
#	63619
#	78787
#	90040
#	104152
#	124630
#	139376
#	155998
#
# Disc length: 2246 seconds
#
# Revision: 0
# Processed by: cddbd v1.5.2PL0 Copyright (c) Steve Scherf et al.
# Submitted via: CDex 1.51
#
DISCID=a308c40c
DTITLE=Donna Chapel - Stop The Hands Of Time...
DYEAR=2001
DGENRE=Country
TTITLE0=Stop The Hands Of Time
TTITLE1=More Love For You
TTITLE2=Look What The Bottle's Done To You
TTITLE3=Too Much Love Gets In My Way
TTITLE4=From Here To The Door
TTITLE5=Gimme A Rock
TTITLE6=www. Gone
TTITLE7=Loving You Is A Way Of Life With Me
TTITLE8=When I Need You
TTITLE9=Burning Bridges
TTITLE10=Gotta Get Hold Of My Heart
TTITLE11=Imitate The Man
EXTD=YEAR: 2001
EXTT0=
EXTT1=
EXTT2=
EXTT3=
EXTT4=
EXTT5=
EXTT6=
EXTT7=
EXTT8=
EXTT9=
EXTT10=
EXTT11=
PLAYORDER=
